<svg width="26" height="26" viewBox="0 0 26 26" fill="none" xmlns="http://www.w3.org/2000/svg">
<g clip-path="url(#clip0_4_689)">
<path d="M25.6826 24.1323L21.6883 20.1359L24.5993 17.225C24.8614 16.9628 24.9719 16.5858 24.8918 16.224C24.8105 15.8622 24.5516 15.5675 24.2027 15.4408L14.7442 12.0153C13.9674 11.7498 13.1246 11.9448 12.5439 12.5266C11.9643 13.1073 11.7693 13.9501 12.0348 14.7268C12.0358 14.7323 12.038 14.7388 12.0402 14.7442L15.4592 24.1843C15.5848 24.5332 15.8817 24.7932 16.2435 24.8733C16.601 24.9535 16.9834 24.8441 17.2445 24.5819L20.1576 21.6688L24.1518 25.6653C24.5754 26.0888 25.2601 26.0878 25.6837 25.6653C26.1073 25.2417 26.1062 24.5559 25.6826 24.1323ZM16.9163 21.8443L14.1072 14.0877L21.8617 16.8968L16.9163 21.8443ZM11.9167 20.5823C11.9167 21.1803 11.4313 21.6656 10.8333 21.6656C4.93675 21.6732 -0.00433049 16.8469 2.84809e-06 10.8333C2.84809e-06 4.85983 4.85984 0 10.8333 0C16.8068 0 21.6667 4.85983 21.6667 10.8333C21.6667 11.4313 21.1824 11.9167 20.5833 11.9167C19.9843 11.9167 19.5 11.4313 19.5 10.8333C19.5 6.05475 15.6119 2.16667 10.8333 2.16667C6.05475 2.16667 2.16667 6.05475 2.16667 10.8333C2.16667 13.2752 3.18609 15.4808 4.8165 17.0571C5.44592 15.5079 6.65709 14.2296 8.23334 13.5406C8.78042 13.3022 9.41959 13.5503 9.66009 14.0996C9.8995 14.6478 9.64925 15.2869 9.10109 15.5263C7.86934 16.0637 6.97234 17.1383 6.643 18.4134C7.88667 19.1035 9.3145 19.5 10.8344 19.5C11.4324 19.5 11.9178 19.9853 11.9178 20.5833L11.9167 20.5823ZM7.04167 8.125C7.04167 10.2158 8.7425 11.9167 10.8333 11.9167C12.9242 11.9167 14.625 10.2158 14.625 8.125C14.625 6.03417 12.9242 4.33333 10.8333 4.33333C8.7425 4.33333 7.04167 6.03417 7.04167 8.125ZM12.4583 8.125C12.4583 9.02092 11.7293 9.75 10.8333 9.75C9.93742 9.75 9.20834 9.02092 9.20834 8.125C9.20834 7.22908 9.93742 6.5 10.8333 6.5C11.7293 6.5 12.4583 7.22908 12.4583 8.125Z" fill="#386641"/>
</g>
<defs>
<clipPath id="clip0_4_689">
<rect width="26" height="26" fill="white"/>
</clipPath>
</defs>
</svg>
